<svg width="37" height="48" viewBox="0 0 37 48" fill="none" xmlns="http://www.w3.org/2000/svg">
<path d="M18.6249 47.0601C20.2629 47.0601 21.7026 47.3153 22.4826 46.6559C23.3262 45.9428 22.2048 44.8191 21.1003 44.8191H16.1496C15.045 44.8191 13.9236 45.9428 14.7672 46.6559C15.5473 47.3153 16.987 47.0601 18.6249 47.0601ZM36.5262 34.5748V20.8089C36.5262 13.532 29.5686 8.17468 23.4408 6.03628C22.5883 5.73877 21.9814 4.95628 21.9814 4.05331V3.84164C21.9814 1.71593 20.4822 0 18.6249 0C16.7677 0 15.2684 1.71593 15.2684 3.84164V4.05471C15.2684 4.95703 14.6625 5.73915 13.8107 6.03681C7.69845 8.17268 0.723633 13.5094 0.723633 20.8089V34.5748V39.697V40.2581C0.723633 41.3626 1.61906 42.2581 2.72363 42.2581H34.5262C35.6308 42.2581 36.5262 41.3626 36.5262 40.2581V39.697V34.5748ZM32.0509 35.1359C32.0509 36.2404 31.1555 37.1359 30.0509 37.1359H7.19896C6.09439 37.1359 5.19896 36.2404 5.19896 35.1359V20.8089C5.19896 14.4574 13.0532 10.2444 18.6249 10.2444C24.1967 10.2444 32.0509 14.4574 32.0509 20.8089V35.1359Z" fill="#B2B1B6"/>
</svg>
