<svg width="45" height="44" viewBox="0 0 45 44" fill="none" xmlns="http://www.w3.org/2000/svg">
<path d="M32.7082 36.3214L32.2371 35.8971C31.4968 35.2303 30.3883 35.229 29.5452 35.7596C26.6654 37.5719 23.6359 37.7389 19.6058 37.7389C9.15303 37.7389 0.680175 29.4892 0.680175 19.3117C0.680175 9.13414 9.15303 0.8844 19.6058 0.8844C30.0586 0.884401 38.5314 9.13414 38.5314 19.3117C38.5314 23.1402 38.2446 26.1046 36.4681 28.8681C35.8749 29.7909 35.9272 31.0351 36.7424 31.7691L37.0756 32.069L43.5372 38.5671C44.3218 39.3562 44.3115 40.634 43.5142 41.4103L42.0368 42.8488C41.2533 43.6116 40.0024 43.6038 39.2285 42.8312L32.7082 36.3214ZM32.7082 19.3117C32.7082 12.2526 26.8558 6.55433 19.6058 6.55433C12.3558 6.55433 6.50344 12.2526 6.50344 19.3117C6.50344 26.3707 12.3558 32.069 19.6058 32.069C26.8558 32.069 32.7082 26.3707 32.7082 19.3117Z" fill="#B2B1B6"/>
</svg>
