<svg width="1988" height="1088" viewBox="0 0 1988 1088" fill="none" xmlns="http://www.w3.org/2000/svg">
<path d="M1031.11 2C1092.67 31.5032 1259.69 89.8288 1435.23 87.1054C1654.67 83.7012 1784.36 115.312 1865.41 230.083C1930.26 321.899 1973.49 352.634 1987 356.525M419.706 2C392.494 50.3075 363.198 171.335 463.709 268.988C589.347 391.053 775.778 592.388 1929.1 668.254M202.011 2C224.591 18.2106 261.877 63.9568 230.381 117.257C191.01 183.882 118.638 289.413 202.011 428.013C285.383 566.614 841.781 916.275 1929.1 977.065" stroke="#E7E6EC" stroke-opacity="0.8" stroke-width="4"/>
<path d="M2 783C85.1467 861.194 309.352 1031.26 541 1086" stroke="#E7E6EC" stroke-opacity="0.8" stroke-width="4"/>
</svg>
